<svg t="1601189778050" class="icon" viewBox="0 0 1024 1024" version="1.1" xmlns="http://www.w3.org/2000/svg" p-id="1303"
	width="20" height="20">
	<path
		d="M272.128 128.256m34.176 0l14.336 0q34.176 0 34.176 34.176l0 86.4q0 34.176-34.176 34.176l-14.336 0q-34.176 0-34.176-34.176l0-86.4q0-34.176 34.176-34.176Z"
		fill="#E27259" p-id="1304"></path>
	<path
		d="M653.952 128.256m34.176 0l14.336 0q34.176 0 34.176 34.176l0 86.4q0 34.176-34.176 34.176l-14.336 0q-34.176 0-34.176-34.176l0-86.4q0-34.176 34.176-34.176Z"
		fill="#E28A6F" p-id="1305"></path>
	<path
		d="M854.272 212.608h-105.6v36.224a46.464 46.464 0 0 1-46.336 46.336h-14.208a46.464 46.464 0 0 1-46.336-46.336v-36.224H366.848v36.224a46.336 46.336 0 0 1-46.208 46.336h-14.336a46.336 46.336 0 0 1-46.208-46.336v-36.224h-90.368a72.704 72.704 0 0 0-72.448 72.448v538.752A72.704 72.704 0 0 0 169.728 896h684.544a72.704 72.704 0 0 0 72.448-72.448V285.056a72.704 72.704 0 0 0-72.448-72.448zM538.624 746.496H213.888v-9.088a162.816 162.816 0 0 1 130.56-159.616 99.456 99.456 0 1 1 64 0 162.816 162.816 0 0 1 130.56 159.616c0.128 3.072-0.128 6.016-0.384 9.088zM810.496 691.2H616.704v-41.472h193.792z m0-106.752H616.704v-41.472h193.792z m0-106.88H616.704v-41.472h193.792z"
		fill="#E27259" p-id="1306"></path>
</svg>